<svg xmlns="http://www.w3.org/2000/svg" xml:space="preserve" style="enable-background:new 0 0 45 45" viewBox="0 0 45 45"><defs><clipPath id="a" clipPathUnits="userSpaceOnUse"><path d="M0 36h36V0H0v36Z"/></clipPath></defs><g clip-path="url(#a)" transform="matrix(1.25 0 0 -1.25 0 45)"><path d="M0 0c-.404 0-.806.124-1.152.371l-8.134 5.834-8.135-5.834a1.97 1.97 0 0 0-2.312.008 1.971 1.971 0 0 0-.721 2.194l3.034 9.792-8.062 5.68a1.982 1.982 0 0 0-.708 2.204 1.98 1.98 0 0 0 1.866 1.363l9.984.015 3.179 9.549a1.975 1.975 0 0 0 3.75 0l3.124-9.549 10.037-.015a1.977 1.977 0 0 0 1.159-3.567l-8.062-5.68 3.034-9.792a1.97 1.97 0 0 0-.72-2.194A1.96 1.96 0 0 0 0 0" style="fill:#ffac33;fill-opacity:1;fill-rule:nonzero;stroke:none" transform="translate(27.287 1.373)"/></g></svg>