<?xml version="1.0" encoding="UTF-8"?>
<svg width="216px" height="59px" viewBox="0 0 207 301" fill="#fff" version="1.1" xmlns="http://www.w3.org/2000/svg" xmlns:xlink="http://www.w3.org/1999/xlink">
    <path d="M205.844975,173.354733 C204.915648,164.190051 202.048974,155.327565 197.434975,147.354733 C196.203062,145.234937 194.787641,143.227248 193.204975,141.354733 C192.997558,141.11491 192.721986,140.943986 192.414975,140.864733 C192.108463,140.792179 191.786981,140.81664 191.494975,140.934733 C191.202961,141.053877 190.957379,141.264377 190.794975,141.534733 C190.627863,141.803731 190.550803,142.118977 190.574975,142.434733 C191.583331,155.325711 191.566612,168.276401 190.524975,181.164733 C189.995945,187.153236 189.104309,193.104154 187.854975,198.984733 C187.780225,199.235957 187.780225,199.503509 187.854975,199.754733 C187.933958,200.005235 188.079055,200.22979 188.274975,200.404733 C188.471512,200.576116 188.709332,200.693302 188.964975,200.744733 C189.222317,200.795221 189.48856,200.774475 189.734975,200.684733 C193.051822,199.5883 196.113032,197.833206 198.734975,195.524733 C204.484975,190.454733 206.844975,182.994733 205.844975,173.354733 Z M126.234975,28.054733 C126.630474,28.1395933 127.039476,28.1395933 127.434975,28.054733 C128.231993,27.8774913 128.919907,27.3778483 129.334975,26.674733 C129.547187,26.3308156 129.683557,25.9455688 129.734975,25.544733 C132.444975,7.68473303 114.864975,-3.57526697 110.834975,1.03473303 C107.474975,4.86473303 114.534975,7.88473303 115.404975,12.334733 C109.884975,9.33473303 103.064975,7.53473303 101.924975,11.724733 C100.924975,15.604733 106.044975,17.664733 110.754975,19.884733 C107.044975,20.084733 102.624975,20.284733 100.464975,23.654733 C100.154546,24.1483401 99.9946953,24.7217161 100.004975,25.304733 C100.013456,25.8860035 100.190637,26.4522891 100.514975,26.934733 C100.842449,27.4200632 101.304778,27.7989647 101.844975,28.024733 C102.380996,28.2529802 102.97304,28.3156672 103.544975,28.204733 L105.064975,27.984733 C112.087116,26.972978 119.219679,26.9965623 126.234975,28.054733 Z M184.004975,133.244733 C183.944975,132.634733 183.884975,132.024733 183.834975,131.424733 C183.414975,127.154733 182.954975,123.074733 182.494975,119.264733 C178.144975,82.954733 167.084975,57.714733 149.614975,44.264733 C134.614975,32.674733 117.554975,32.174733 105.874975,33.784733 C85.264975,36.634733 50.084975,51.214733 45.874975,116.784733 C45.574975,121.504733 45.3583084,126.008066 45.224975,130.294733 C45.2138487,130.617683 45.40555,130.913222 45.704975,131.034733 C48.374975,132.194733 50.894975,134.654733 53.054975,138.254733 C59.194975,148.454733 61.894975,166.534733 54.784975,179.944733 C48.004975,192.724733 36.184975,197.474733 29.784975,199.174733 L29.654975,199.174733 C25.9359857,200.189239 22.088573,200.654163 18.234975,200.554733 L13.874975,200.554733 C6.23497502,200.554733 1.49497502,201.194733 0.144975022,206.054733 C-0.495024978,208.354733 0.834975022,214.774733 7.14497502,223.054733 C12.234975,229.764733 21.834975,239.394733 38.624975,247.234733 C48.6968494,251.864999 59.340355,255.133716 70.274975,256.954733 L71.424975,260.054733 C71.794975,261.054733 72.174975,262.124733 72.554975,263.204733 C75.024975,270.064733 77.664975,277.354733 78.484975,279.534733 C78.804975,280.364733 78.484975,281.404733 76.944975,281.404733 L67.784975,281.404733 C67.784975,281.404733 65.044975,287.484733 72.504975,287.264733 C93.204975,286.644733 90.954975,303.214733 97.504975,300.084733 C103.774975,297.084733 91.834975,287.234733 92.014975,287.264733 C115.864975,290.264733 108.244975,281.384733 108.244975,281.384733 C108.244975,281.384733 96.164975,281.474733 91.614975,281.384733 C88.9700681,281.329214 86.6272376,279.664259 85.704975,277.184733 L80.914975,264.184733 L79.784975,261.114733 L78.654975,258.114733 C85.4108402,258.884594 92.2053949,259.265222 99.004975,259.254733 C106.164153,259.284041 113.314023,258.735594 120.384975,257.614733 C120.664975,258.374733 121.014975,259.344733 121.384975,260.414733 C121.704975,261.284733 122.044975,262.224733 122.384975,263.184733 C123.754975,266.964733 125.174975,270.904733 125.324975,271.364733 C125.754975,272.684733 125.444975,273.194733 123.094975,273.194733 L114.234975,273.194733 C114.234975,273.194733 111.674975,278.904733 121.474975,278.904733 C141.474975,278.904733 137.284975,295.684733 144.974975,291.404733 C149.884975,288.654733 140.754975,280.914733 140.024975,279.994733 C139.614975,279.474733 139.954975,278.734733 141.024975,278.894733 C161.434975,282.014733 156.424975,273.194733 156.424975,273.194733 C156.424975,273.194733 142.344975,273.274733 136.334975,273.274733 C135.138575,273.27913 134.062275,272.548358 133.624975,271.434733 C132.764975,269.274733 131.294975,265.174733 130.004975,261.564733 L129.004975,258.834733 C128.614975,257.754733 128.264975,256.834733 128.004975,256.064733 C131.743812,255.163061 135.418579,254.013861 139.004975,252.624733 C148.757769,248.89477 157.484278,242.900007 164.464975,235.134733 C171.404975,227.324733 176.564975,217.724733 180.044975,206.134733 C180.224975,205.524733 180.404975,204.904733 180.574975,204.284733 L181.084975,202.424733 C182.904522,195.263902 184.135292,187.966237 184.764975,180.604733 C186.164975,165.294733 185.464975,149.304733 184.184975,135.084733 C184.074975,134.504733 184.014975,133.874733 183.954975,133.224733 L184.004975,133.244733 Z M105.044975,102.354733 C104.100245,102.556222 103.115874,102.451129 102.234975,102.054733 C100.458695,101.207447 99.4411996,99.3021767 99.724975,97.354733 C99.8622967,96.406667 100.304592,95.5290964 100.984975,94.854733 C101.664543,94.1759754 102.544667,93.7341599 103.494975,93.594733 C104.927239,93.3915204 106.3691,93.8955908 107.362783,94.9469084 C108.356467,95.9982259 108.778531,97.4661873 108.494975,98.884733 C108.328226,99.750617 107.902846,100.54559 107.274975,101.164733 C106.65269,101.790321 105.859522,102.218215 104.994975,102.394733 L105.044975,102.354733 Z M141.234975,117.054733 L129.744975,124.504733 C129.330555,124.796764 128.831573,124.94435 128.324975,124.924733 L128.324975,124.924733 C127.821477,124.944385 127.325653,124.796692 126.914975,124.504733 L115.394975,117.054733 C115.065764,116.872097 114.8005,116.592871 114.634975,116.254733 C114.293243,115.56731 114.391408,114.742716 114.884975,114.154733 C115.129638,113.872794 115.448324,113.664956 115.804975,113.554733 L127.114975,108.864733 C127.496088,108.724861 127.899006,108.653758 128.304975,108.65472 L128.304975,108.65472 C128.714211,108.65363 129.120434,108.724719 129.504975,108.864733 L140.804975,113.554733 C141.168675,113.655734 141.493038,113.865 141.734975,114.154733 C141.978022,114.437854 142.134265,114.78506 142.184975,115.154733 C142.227979,115.525549 142.161953,115.900859 141.994975,116.234733 C141.834312,116.575497 141.572392,116.858371 141.244975,117.044733 L141.234975,117.054733 Z M152.234975,102.344733 C151.295708,102.529293 150.322079,102.410216 149.454975,102.004733 C147.349296,101.012038 146.358029,98.5694208 147.176426,96.3900736 C147.994822,94.2107263 150.348862,93.0243503 152.587478,93.6630411 C154.826094,94.3017319 156.19974,96.5516395 155.744975,98.834733 C155.388341,100.601058 154.010276,101.983061 152.244975,102.344733 L152.234975,102.344733 Z M19.334975,194.764733 L20.234975,194.764733 C22.9383281,194.652834 25.6211504,194.243704 28.234975,193.544733 L28.884975,193.334733 C32.0259705,192.445212 35.0354308,191.143915 37.834975,189.464733 C39.4485688,188.503995 40.9744581,187.403079 42.394975,186.174733 C45.3203976,183.64849 47.7457119,180.595647 49.544975,177.174733 C55.424975,166.074733 53.354975,150.174733 47.964975,141.234733 C47.16031,139.831339 46.1489801,138.557063 44.964975,137.454733 C43.964975,136.624733 43.064975,135.974733 42.254975,136.094733 C42.1848162,136.116276 42.1176279,136.14651 42.054975,136.184733 C40.9325769,136.899181 39.9216981,137.775276 39.054975,138.784733 C35.7746942,142.48751 32.8235181,146.469256 30.234975,150.684733 C24.6134693,159.472154 19.7300812,168.710454 15.634975,178.304733 C13.064975,184.464733 12.084975,188.254733 11.754975,190.524733 C11.6232816,191.404339 11.8384102,192.300709 12.354975,193.024733 C12.8727942,193.745069 13.6448339,194.24189 14.514975,194.414733 C16.1026873,194.691003 17.7139934,194.80825 19.324975,194.764733 L19.334975,194.764733 Z"></path>
</svg>