<svg width="60" height="60" fill="none" xmlns="http://www.w3.org/2000/svg"><rect width="60" height="60" rx="30" fill="url(#paint0_linear_1104_19)"/><path d="M43.035 21.644a3.118 3.118 0 00-2.288-.965h-4.576v-.055c0-.69-.276-1.35-.744-1.792a2.522 2.522 0 00-1.792-.744h-8.27a2.54 2.54 0 00-2.564 2.536v.055h-4.548c-.91 0-1.71.359-2.288.965A3.277 3.277 0 0015 23.932V37.66c0 .91.358 1.71.965 2.288a3.277 3.277 0 002.288.965h22.494c.91 0 1.71-.358 2.288-.965A3.277 3.277 0 0044 37.66V23.932c0-.91-.358-1.71-.965-2.288zm-.468 16.016h-.028c0 .496-.193.937-.524 1.268a1.77 1.77 0 01-1.268.524H18.253a1.77 1.77 0 01-1.268-.524 1.77 1.77 0 01-.524-1.268V23.932c0-.496.193-.937.524-1.268a1.77 1.77 0 011.268-.524h5.32a.74.74 0 00.744-.744v-.8c0-.303.11-.579.304-.771.193-.193.468-.304.772-.304h8.242c.303 0 .579.11.772.304.193.192.303.468.303.771v.8c0 .413.33.744.744.744h5.32c.497 0 .938.193 1.269.524.33.33.523.772.523 1.268V37.66z" fill="#828AAF"/><path d="M29.5 24.015a6.794 6.794 0 00-4.797 1.984 6.727 6.727 0 00-1.984 4.797c0 1.874.772 3.584 1.984 4.797a6.727 6.727 0 004.797 1.984 6.794 6.794 0 004.797-1.984 6.727 6.727 0 001.985-4.797 6.794 6.794 0 00-1.985-4.797 6.794 6.794 0 00-4.797-1.984zm3.75 10.558a5.387 5.387 0 01-3.75 1.543 5.387 5.387 0 01-3.749-1.543 5.27 5.27 0 01-1.544-3.75c0-1.46.607-2.784 1.544-3.748a5.27 5.27 0 013.75-1.544c1.46 0 2.783.606 3.748 1.544a5.27 5.27 0 011.544 3.749c.028 1.46-.579 2.784-1.544 3.749zm6.064-7.884a1.35 1.35 0 100-2.702 1.35 1.35 0 000 2.702z" fill="#828AAF"/><defs><linearGradient id="paint0_linear_1104_19" x1="30" y1="0" x2="30" y2="60" gradientUnits="userSpaceOnUse"><stop stop-color="#B2BBE0"/><stop offset="1" stop-color="#79B9C8"/></linearGradient></defs></svg>