<svg width="18" height="18" viewBox="0 0 18 18" fill="none" xmlns="http://www.w3.org/2000/svg">
<g id="star " clip-path="url(#clip0_1_3388)">
<path id="Vector" d="M17.5636 6.99663C17.4511 6.6478 17.1421 6.40115 16.7761 6.36737L11.8065 5.91582L9.84136 1.31599C9.69661 0.979254 9.3666 0.761719 8.99992 0.761719C8.63311 0.761719 8.3031 0.979941 8.15835 1.3175L6.19339 5.91664L1.22291 6.36805C0.857743 6.40115 0.548744 6.6478 0.436131 6.99663C0.322969 7.34545 0.427891 7.7271 0.70393 7.96867L4.4608 11.2627L3.35294 16.1416C3.27205 16.5002 3.41144 16.8706 3.70932 17.0866C3.86821 17.2036 4.0565 17.2621 4.24478 17.2621C4.40752 17.2621 4.56957 17.2187 4.71432 17.1316L8.99992 14.5689L13.2847 17.131C13.5982 17.3191 13.9935 17.3026 14.2905 17.0874C14.5883 16.8714 14.7278 16.5009 14.6468 16.1423L13.539 11.2636L17.2959 7.96935C17.5718 7.72792 17.6769 7.34614 17.5636 6.99663Z" fill="#FFC700"/>
<path id="Vector_2" d="M4.02961 17.6354C3.83158 17.6354 3.63574 17.574 3.46861 17.4532C3.15727 17.2282 3.01184 16.8404 3.09657 16.4655L4.25456 11.3654L0.327394 7.92119C0.0387204 7.6685 -0.0715577 7.27023 0.0469604 6.90493C0.165479 6.54045 0.487936 6.28171 0.869721 6.24642L6.06667 5.77468L8.1202 0.967072C8.27168 0.613852 8.61666 0.385742 8.99996 0.385742C9.38325 0.385742 9.72823 0.613852 9.87971 0.966248L11.9332 5.77468L17.1294 6.24642C17.512 6.28089 17.8344 6.53976 17.953 6.90424C18.0715 7.26941 17.9619 7.6685 17.6724 7.9205L13.746 11.3638L14.904 16.464C14.9889 16.839 14.8433 17.2267 14.5321 17.4517C14.2223 17.6759 13.8091 17.6947 13.4813 17.4982L8.99996 14.8206L4.51934 17.4997C4.36786 17.5905 4.19908 17.6354 4.02961 17.6354ZM8.99996 13.6672C9.17025 13.6672 9.33889 13.7129 9.49051 13.8029L13.7191 16.332L12.6262 11.5175C12.5482 11.1741 12.6645 10.817 12.9293 10.5853L16.6374 7.33244L11.7315 6.88694C11.3798 6.85549 11.0752 6.63424 10.9372 6.30794L8.99996 1.77102L7.06109 6.30863C6.9239 6.63342 6.61943 6.85466 6.2669 6.88625L1.36178 7.33176L5.06977 10.5845C5.33537 10.8163 5.45087 11.1741 5.37286 11.5175L4.2801 16.332L8.50872 13.8029C8.66088 13.7129 8.82966 13.6672 8.99996 13.6672ZM6.02615 5.86848V5.86916V5.86848ZM11.9731 5.86614V5.86697C11.9731 5.86697 11.9731 5.86697 11.9731 5.86614Z" fill="#222222"/>
</g>
<defs>
<clipPath id="clip0_1_3388">
<rect width="18" height="18" fill="white"/>
</clipPath>
</defs>
</svg>
